<svg width="800" height="800" viewBox="0 0 800 800" fill="none" xmlns="http://www.w3.org/2000/svg">
<path d="M163.568 684.468C153.936 681.794 146.97 673.431 146.083 663.474L93.7189 76.1344C92.4671 62.0939 103.528 50.0031 117.624 50.0031H682.373C696.47 50.0031 707.531 62.0955 706.278 76.1368L653.863 663.375C652.975 673.334 646.005 681.698 636.37 684.369L406.042 748.224C401.844 749.388 397.408 749.387 393.21 748.222L163.568 684.468Z" fill="#1572B6"/>
<path d="M400.006 696.443L604.251 639.816L652.302 101.513H400.006V696.443Z" fill="#33A9DC"/>
<path d="M400.006 329.77H502.254L509.316 250.645H400.006V173.375H593.764L591.91 194.107L572.915 407.04H400.006V329.77Z" fill="white"/>
<path d="M400.464 530.445L400.123 530.545L314.071 507.31L308.568 445.683H231.013L241.834 567.01L400.112 610.938L400.464 610.838V530.445Z" fill="#EBEBEB"/>
<path d="M495.684 403.771L486.376 507.249L400.196 530.512V610.905L558.602 567.004L559.764 553.948L573.205 403.771H495.684Z" fill="white"/>
<path d="M400.268 173.375V250.645H213.627L212.079 233.281L208.56 194.107L206.71 173.375H400.268ZM400.006 329.781V407.051H315.037L313.49 389.687L309.964 350.513L308.121 329.781H400.006Z" fill="#EBEBEB"/>
</svg>
