<svg width="534" height="800" viewBox="0 0 534 800" fill="none" xmlns="http://www.w3.org/2000/svg">
<path d="M150.003 750C214.403 750 266.67 697.733 266.67 633.333V516.667H150.003C85.6031 516.667 33.3364 568.933 33.3364 633.333C33.3364 697.733 85.6031 750 150.003 750Z" fill="#0ACF83"/>
<path d="M33.3364 400C33.3364 335.6 85.6031 283.333 150.003 283.333H266.67V516.667H150.003C85.6031 516.667 33.3364 464.4 33.3364 400Z" fill="#A259FF"/>
<path d="M33.3367 166.667C33.3367 102.267 85.6033 50 150.003 50H266.67V283.333H150.003C85.6033 283.333 33.3367 231.067 33.3367 166.667Z" fill="#F24E1E"/>
<path d="M266.67 50H383.336C447.736 50 500.003 102.267 500.003 166.667C500.003 231.067 447.736 283.333 383.336 283.333H266.67V50Z" fill="#FF7262"/>
<path d="M500.003 400C500.003 464.4 447.736 516.667 383.336 516.667C318.936 516.667 266.67 464.4 266.67 400C266.67 335.6 318.936 283.333 383.336 283.333C447.736 283.333 500.003 335.6 500.003 400Z" fill="#1ABCFE"/>
</svg>
