<svg width="800" height="800" viewBox="0 0 800 800" fill="none" xmlns="http://www.w3.org/2000/svg">
<path d="M163.56 684.469C153.928 681.796 146.962 673.432 146.074 663.475L93.705 76.1314C92.4531 62.0909 103.514 50 117.61 50H682.386C696.484 50 707.545 62.093 706.291 76.1346L653.853 663.372C652.964 673.33 645.995 681.694 636.36 684.365L406.041 748.221C401.843 749.385 397.407 749.384 393.209 748.219L163.56 684.469Z" fill="#E44F26"/>
<path d="M400 696.45L604.25 639.825L652.3 101.525H400V696.45Z" fill="#F1662A"/>
<path d="M400 335.175H297.75L290.7 256.05H400V178.775H206.25L208.1 199.525L227.075 412.45H400V335.175ZM400 535.85L399.65 535.95L313.6 512.725L308.1 451.1H230.525L241.35 572.4L399.65 616.35L400 616.25V535.85Z" fill="#EBEBEB"/>
<path d="M399.725 335.175V412.45H494.875L485.925 512.675L399.725 535.925V616.325L558.15 572.4L559.3 559.35L577.45 355.925L579.35 335.175H399.725ZM399.725 178.775V256.05H586.375L587.925 238.7L591.45 199.525L593.3 178.775H399.725Z" fill="white"/>
</svg>
