<svg width="800" height="800" viewBox="0 0 800 800" fill="none" xmlns="http://www.w3.org/2000/svg">
<path d="M50.0029 74.0032C50.0029 60.7483 60.7481 50.0032 74.0029 50.0032H725.997C739.252 50.0032 749.997 60.7483 749.997 74.0032V726.003C749.997 739.258 739.252 750.003 725.997 750.003H74.003C60.7481 750.003 50.0029 739.258 50.0029 726.003V74.0032Z" fill="#F0DB4F"/>
<path d="M692.71 583.051C687.582 551.117 666.759 524.293 605.077 499.281C583.649 489.434 559.761 482.383 552.643 466.145C550.115 456.695 549.78 451.372 551.379 445.651C555.97 427.087 578.13 421.299 595.694 426.623C607.006 430.414 617.714 439.131 624.172 453.038C654.379 433.478 654.317 433.607 675.409 420.164C667.687 408.192 663.566 402.668 658.511 397.546C640.344 377.253 615.589 366.802 576 367.602L555.377 370.269C535.616 375.263 516.783 385.635 505.74 399.542C472.603 437.141 482.053 502.944 522.375 530.025C562.099 559.84 620.454 566.622 627.908 594.503C635.16 628.635 602.823 639.684 570.682 635.759C546.995 630.832 533.821 618.793 519.579 596.902C493.365 612.072 493.365 612.072 466.413 627.572C472.804 641.546 479.52 647.87 490.234 659.976C540.939 711.409 667.827 708.882 690.585 631.034C691.508 628.361 697.636 610.534 692.71 583.051ZM430.542 371.723H365.068L364.8 540.996C364.8 576.995 366.662 609.998 360.808 620.113C351.229 640.008 326.407 637.542 315.095 633.684C303.582 628.025 297.727 619.979 290.945 608.605C289.083 605.34 287.685 602.812 287.215 602.616L233.982 635.216C242.833 653.384 255.873 669.152 272.576 679.396C297.526 694.371 331.06 698.962 366.131 690.91C388.956 684.261 408.65 670.489 418.962 649.525C433.869 622.042 430.671 588.777 430.536 551.983C430.872 491.956 430.542 431.94 430.542 371.723Z" fill="#323330"/>
</svg>
