<svg width="800" height="800" viewBox="0 0 800 800" fill="none" xmlns="http://www.w3.org/2000/svg">
<path d="M585.938 50H214.062C123.453 50 50 123.453 50 214.062V585.938C50 676.547 123.453 750 214.062 750H585.938C676.547 750 750 676.547 750 585.938V214.062C750 123.453 676.547 50 585.938 50Z" fill="#242938"/>
<path d="M400.003 451.819C428.178 451.819 451.015 428.979 451.015 400.807C451.015 372.634 428.178 349.794 400.003 349.794C371.83 349.794 348.99 372.634 348.99 400.807C348.99 428.979 371.83 451.819 400.003 451.819Z" fill="#00D8FF"/>
<path d="M400.005 297.086C468.496 297.086 532.122 306.914 580.097 323.432C637.899 343.33 673.438 373.493 673.438 400.807C673.438 429.269 635.774 461.313 573.701 481.878C526.774 497.426 465.021 505.541 400.005 505.541C333.347 505.541 270.224 497.923 222.766 481.706C162.725 461.184 126.562 428.727 126.562 400.807C126.562 373.714 160.496 343.784 217.486 323.916C265.638 307.127 330.834 297.086 399.995 297.086H400.005Z" stroke="#00D8FF" stroke-width="24.366"/>
<path d="M309.714 349.245C343.931 289.914 384.228 239.705 422.504 206.401C468.616 166.268 512.503 150.551 536.161 164.193C560.817 178.412 569.761 227.051 556.567 291.095C546.601 339.513 522.773 397.061 490.292 453.383C456.99 511.128 418.859 562.003 381.105 595.002C333.333 636.761 287.147 651.874 262.961 637.926C239.492 624.402 230.518 580.048 241.778 520.753C251.291 470.651 275.165 409.157 309.703 349.245H309.714Z" stroke="#00D8FF" stroke-width="24.366"/>
<path d="M309.799 453.534C275.485 394.269 252.122 334.271 242.372 284.478C230.633 224.483 238.932 178.614 262.57 164.931C287.204 150.669 333.806 167.212 382.703 210.628C419.671 243.452 457.633 292.826 490.207 349.094C523.605 406.784 548.635 465.231 558.372 514.417C570.694 576.662 560.721 624.221 536.558 638.208C513.113 651.781 470.208 637.412 424.459 598.043C385.806 564.782 344.451 513.389 309.799 453.534Z" stroke="#00D8FF" stroke-width="24.366"/>
</svg>
