<svg width="65" height="64" viewBox="0 0 65 64" fill="none" xmlns="http://www.w3.org/2000/svg">
<g clip-path="url(#clip0_170_94)">
<path d="M27.3929 37.2857C27.3929 40.0429 25.3929 40.9143 22.9357 40.9143H16.4929V33.3571H23.0643C25.7214 33.3714 27.3929 34.4714 27.3929 37.2857ZM26.2929 25.5286C26.2929 23 24.3357 22.4 22.1643 22.4H16.5071V28.8H22.6071C24.7643 28.8 26.2929 27.8571 26.2929 25.5286ZM45.1929 28.8429C42.5786 28.8429 40.8357 30.4714 40.6643 33.0857H49.55C49.3071 30.4429 47.9357 28.8429 45.1929 28.8429ZM64.75 6.85714V57.1429C64.75 60.9286 61.6786 64 57.8929 64H7.60714C3.82143 64 0.75 60.9286 0.75 57.1429V6.85714C0.75 3.07143 3.82143 0 7.60714 0H57.8929C61.6786 0 64.75 3.07143 64.75 6.85714ZM39.5643 21.8571H50.6786V19.1571H39.5643V21.8571ZM33.4214 37.6143C33.4214 34.1714 31.7929 31.2 28.4214 30.2429C30.8786 29.0714 32.1643 27.7143 32.1643 24.9571C32.1643 19.5 28.0929 18.1714 23.3929 18.1714H10.4643V45.6H23.7643C28.75 45.5714 33.4214 43.1857 33.4214 37.6143ZM55.0357 35.5C55.0357 29.6286 51.5929 24.7286 45.3786 24.7286C39.3214 24.7286 35.2214 29.2714 35.2214 35.2429C35.2214 41.4286 39.1214 45.6714 45.3786 45.6714C50.1214 45.6714 53.1929 43.5429 54.6786 38.9857H49.8643C49.3357 40.6857 47.2071 41.5714 45.55 41.5714C42.35 41.5714 40.6786 39.7 40.6786 36.5286H54.9929C55.0071 36.2 55.0357 35.8429 55.0357 35.5Z" fill="#27AE60"/>
</g>
<defs>
<clipPath id="clip0_170_94">
<rect x="0.75" width="64" height="64" rx="7" fill="white"/>
</clipPath>
</defs>
</svg>
