<svg width="65" height="64" viewBox="0 0 65 64" fill="none" xmlns="http://www.w3.org/2000/svg">
<path d="M8.75 21.3333L29.79 35.36C30.6664 35.9447 31.6964 36.2568 32.75 36.2568C33.8036 36.2568 34.8336 35.9447 35.71 35.36L56.75 21.3333M14.0833 50.6666H51.4167C52.8312 50.6666 54.1877 50.1047 55.1879 49.1045C56.1881 48.1044 56.75 46.7478 56.75 45.3333V18.6666C56.75 17.2522 56.1881 15.8956 55.1879 14.8954C54.1877 13.8952 52.8312 13.3333 51.4167 13.3333H14.0833C12.6688 13.3333 11.3123 13.8952 10.3121 14.8954C9.3119 15.8956 8.75 17.2522 8.75 18.6666V45.3333C8.75 46.7478 9.3119 48.1044 10.3121 49.1045C11.3123 50.1047 12.6688 50.6666 14.0833 50.6666Z" stroke="#27AE60" stroke-width="5.33333" stroke-linecap="round" stroke-linejoin="round"/>
</svg>
