<svg width="65" height="64" viewBox="0 0 65 64" fill="none" xmlns="http://www.w3.org/2000/svg">
<path d="M32.2499 5.33331C28.748 5.33331 25.2804 6.02307 22.045 7.36319C18.8097 8.70332 15.87 10.6676 13.3937 13.1438C8.39277 18.1448 5.58325 24.9275 5.58325 32C5.58325 43.7866 13.2366 53.7866 23.8233 57.3333C25.1566 57.5466 25.5833 56.72 25.5833 56V51.4933C18.1966 53.0933 16.6233 47.92 16.6233 47.92C15.3966 44.8266 13.6633 44 13.6633 44C11.2366 42.3466 13.8499 42.4 13.8499 42.4C16.5166 42.5866 17.9299 45.1466 17.9299 45.1466C20.2499 49.2 24.1699 48 25.6899 47.36C25.9299 45.6266 26.6233 44.4533 27.3699 43.7866C21.4499 43.12 15.2366 40.8266 15.2366 30.6666C15.2366 27.7066 16.2499 25.3333 17.9833 23.44C17.7166 22.7733 16.7833 20 18.2499 16.4C18.2499 16.4 20.4899 15.68 25.5833 19.12C27.6899 18.5333 29.9833 18.24 32.2499 18.24C34.5166 18.24 36.8099 18.5333 38.9166 19.12C44.0099 15.68 46.2499 16.4 46.2499 16.4C47.7166 20 46.7833 22.7733 46.5166 23.44C48.2499 25.3333 49.2633 27.7066 49.2633 30.6666C49.2633 40.8533 43.0233 43.0933 37.0766 43.76C38.0366 44.5866 38.9166 46.2133 38.9166 48.6933V56C38.9166 56.72 39.3433 57.5733 40.7033 57.3333C51.2899 53.76 58.9166 43.7866 58.9166 32C58.9166 28.4981 58.2268 25.0304 56.8867 21.7951C55.5466 18.5597 53.5823 15.62 51.1061 13.1438C48.6299 10.6676 45.6902 8.70332 42.4548 7.36319C39.2195 6.02307 35.7518 5.33331 32.2499 5.33331Z" fill="#27AE60"/>
</svg>
