<svg width="65" height="64" viewBox="0 0 65 64" fill="none" xmlns="http://www.w3.org/2000/svg">
<g clip-path="url(#clip0_170_70)">
<path d="M49.25 0H15.25C6.96573 0 0.25 6.71573 0.25 15V49C0.25 57.2843 6.96573 64 15.25 64H49.25C57.5343 64 64.25 57.2843 64.25 49V15C64.25 6.71573 57.5343 0 49.25 0Z" fill="white"/>
<path d="M49.25 0H15.25C6.96573 0 0.25 6.71573 0.25 15V49C0.25 57.2843 6.96573 64 15.25 64H49.25C57.5343 64 64.25 57.2843 64.25 49V15C64.25 6.71573 57.5343 0 49.25 0Z" fill="#27AE60"/>
<path d="M46.4287 54.4213H53.7463C54.0114 54.4213 54.2657 54.3159 54.4533 54.1284C54.6408 53.941 54.7462 53.6867 54.7463 53.4215L54.75 37.961C54.75 29.8803 53.0087 23.669 43.5655 23.669C39.9757 23.5355 36.5905 25.386 34.7637 28.476C34.7548 28.491 34.7412 28.5027 34.725 28.5092C34.7088 28.5158 34.691 28.5169 34.6741 28.5123C34.6572 28.5078 34.6423 28.4978 34.6317 28.484C34.621 28.4702 34.6151 28.4532 34.615 28.4358V25.415C34.615 25.1498 34.5096 24.8954 34.3221 24.7079C34.1346 24.5204 33.8802 24.415 33.615 24.415H26.6707C26.4055 24.415 26.1512 24.5204 25.9636 24.7079C25.7761 24.8954 25.6707 25.1498 25.6707 25.415V53.42C25.6707 53.6852 25.7761 53.9396 25.9636 54.1271C26.1512 54.3146 26.4055 54.42 26.6707 54.42H33.9878C34.253 54.42 34.5073 54.3146 34.6949 54.1271C34.8824 53.9396 34.9878 53.6852 34.9878 53.42V39.5768C34.9878 35.6625 35.7303 31.8718 40.583 31.8718C45.3668 31.8718 45.4287 36.3508 45.4287 39.8303V53.4213C45.4287 53.6865 45.5341 53.9408 45.7216 54.1284C45.9092 54.3159 46.1635 54.4213 46.4287 54.4213ZM9.75 14.9068C9.75 17.873 12.1918 20.3135 15.158 20.3135C18.1235 20.3133 20.5637 17.8713 20.5637 14.9058C20.5632 11.9403 18.1227 9.5 15.157 9.5C12.1905 9.5 9.75 11.9407 9.75 14.9068ZM11.4897 54.4213H18.8165C19.0817 54.4213 19.3361 54.3159 19.5236 54.1284C19.7111 53.9408 19.8165 53.6865 19.8165 53.4213V25.415C19.8165 25.1498 19.7111 24.8954 19.5236 24.7079C19.3361 24.5204 19.0817 24.415 18.8165 24.415H11.4897C11.2245 24.415 10.9702 24.5204 10.7826 24.7079C10.5951 24.8954 10.4897 25.1498 10.4897 25.415V53.4213C10.4897 53.6865 10.5951 53.9408 10.7826 54.1284C10.9702 54.3159 11.2245 54.4213 11.4897 54.4213Z" fill="#121214"/>
</g>
<defs>
<clipPath id="clip0_170_70">
<rect width="64" height="64" fill="white" transform="translate(0.25)"/>
</clipPath>
</defs>
</svg>
