<svg width="27" height="40" viewBox="0 0 27 40" fill="none" xmlns="http://www.w3.org/2000/svg">
<path opacity="0.6" d="M13.0572 0.417603H6.52811C4.79674 0.417603 3.1363 1.10538 1.91204 2.32964C0.687781 3.5539 0 5.21435 0 6.94571C0 8.67707 0.687781 10.3375 1.91204 11.5618C3.1363 12.786 4.79674 13.4738 6.52811 13.4738H13.0572V0.417603Z" fill="#27AE60"/>
<path opacity="0.4" d="M13.0572 13.4718H6.52811C4.79674 13.4718 3.1363 14.1596 1.91204 15.3838C0.687781 16.6081 0 18.2685 0 19.9999C0 21.7313 0.687781 23.3917 1.91204 24.616C3.1363 25.8402 4.79674 26.528 6.52811 26.528H13.0572V13.4718Z" fill="#27AE60"/>
<path d="M26.1114 20.0009C26.1114 21.7322 25.4236 23.3927 24.1993 24.6169C22.9751 25.8412 21.3146 26.529 19.5833 26.529C17.8519 26.529 16.1915 25.8412 14.9672 24.6169C13.743 23.3927 13.0552 21.7322 13.0552 20.0009C13.0552 18.2695 13.743 16.6091 14.9672 15.3848C16.1915 14.1606 17.8519 13.4728 19.5833 13.4728C21.3146 13.4728 22.9751 14.1606 24.1993 15.3848C25.4236 16.6091 26.1114 18.2695 26.1114 20.0009Z" fill="#27AE60"/>
<path opacity="0.2" d="M6.5281 26.53H13.0572V33.0572C13.0568 34.3479 12.6737 35.6096 11.9563 36.6827C11.239 37.7558 10.2196 38.5921 9.02698 39.0859C7.83438 39.5796 6.52215 39.7087 5.2562 39.4568C3.99024 39.2049 2.8274 38.5833 1.91468 37.6706C1.00197 36.7579 0.380358 35.595 0.128445 34.3291C-0.123468 33.0631 0.00562611 31.7509 0.499406 30.5583C0.993186 29.3657 1.82948 28.3463 2.90256 27.6289C3.97564 26.9116 5.23732 26.5304 6.5281 26.53Z" fill="#27AE60"/>
<path opacity="0.8" d="M13.0552 0.417603H19.5823C21.3137 0.417603 22.9741 1.10538 24.1984 2.32964C25.4226 3.5539 26.1104 5.21435 26.1104 6.94571C26.1104 8.67707 25.4226 10.3375 24.1984 11.5618C22.9741 12.786 21.3137 13.4738 19.5823 13.4738H13.0552V0.417603Z" fill="#27AE60"/>
</svg>
