<svg width="57" height="48" viewBox="0 0 57 48" fill="none" xmlns="http://www.w3.org/2000/svg">
<path d="M55.7752 22.5477L50.5706 14.1449C50.6819 13.9376 50.7655 13.7041 50.7655 13.4447C50.7655 12.6667 50.0697 12.0183 49.2347 11.9923L43.4735 2.70786C43.5292 2.55227 43.5848 2.39667 43.5848 2.24108C43.5848 1.41123 42.8612 0.762817 41.9983 0.762817C41.4974 0.762817 41.0799 0.970305 40.7737 1.30744H29.6967C29.4184 0.970402 29.0009 0.762914 28.4999 0.762914C27.999 0.762914 27.5815 0.970402 27.3032 1.30753H16.2818C15.9756 0.970402 15.5582 0.762914 15.0572 0.762914C14.1944 0.762914 13.4707 1.41123 13.4707 2.24118C13.4707 2.39677 13.5264 2.57831 13.5821 2.70795L7.76518 12.1222C7.20866 12.3555 6.81891 12.8483 6.81891 13.4448C6.81891 13.4966 6.84675 13.5485 6.84675 13.6004L1.30817 22.5218C0.556726 22.6515 0 23.248 0 23.9741C0 24.6743 0.528775 25.2709 1.25248 25.4264L6.98588 34.6591C6.93019 34.8147 6.90234 34.9443 6.90234 35.1259C6.90234 35.8261 7.43112 36.4226 8.15482 36.5523L13.5264 45.2402C13.4707 45.3958 13.4151 45.5773 13.4151 45.7589C13.4151 46.5887 14.1387 47.2371 15.0016 47.2371C15.5025 47.2371 15.92 47.0297 16.1984 46.7185H27.3033C27.5815 47.0296 28.0269 47.237 28.4999 47.237C28.973 47.237 29.4184 47.0296 29.6967 46.7184H40.8295C41.1077 47.0036 41.5252 47.1852 41.9706 47.1852C42.8612 47.1852 43.557 46.5109 43.557 45.7069C43.557 45.5513 43.5293 45.4217 43.4736 45.292L48.8452 36.5522C49.5688 36.4225 50.0977 35.826 50.0977 35.1258C50.0977 34.9702 50.0698 34.8146 50.0141 34.659L55.7197 25.4264C56.4433 25.2967 57 24.7002 57 23.974C56.9998 23.2738 56.4709 22.6773 55.7752 22.5477V22.5477ZM14.5283 42.8542L9.99177 35.5148H14.5283V42.8542ZM14.5283 34.7368H9.99177C9.96392 34.6331 9.90823 34.5294 9.85264 34.4256L14.5283 29.8353V34.7368ZM14.5283 28.6941L9.29591 33.855C9.15678 33.8031 9.01755 33.7253 8.87842 33.6994L3.08953 24.3631C3.14512 24.2334 3.14512 24.1037 3.14512 23.974C3.14512 23.8444 3.14512 23.7407 3.11727 23.6369L8.51672 14.923C8.79509 14.8971 9.07335 14.8192 9.32386 14.6636L14.5284 19.6949V28.6941H14.5283ZM14.5283 18.7871L9.7691 14.1968C9.90823 13.9894 9.99177 13.7301 9.99177 13.4448C9.99177 13.4189 9.96392 13.367 9.96392 13.341L14.5283 11.8109V18.7871ZM14.5283 10.9809L9.99177 12.5111L14.5283 5.19761V10.9809ZM48.4554 14.7674L48.539 14.8971L44.8651 31.08L38.2411 24.5705L48.4276 14.7415L48.4554 14.7674ZM28.8896 33.5956L30.0864 34.7368H27.7207L28.8896 33.5956ZM28.8617 32.5064L20.2061 24.2334L28.4721 16.0641L37.1 24.5446L28.8617 32.5064V32.5064ZM29.4184 33.077L37.6566 25.1152L44.6703 32.0137L44.058 34.7368H31.1718L29.4184 33.077V33.077ZM41.2191 3.51196C41.3304 3.56385 41.4417 3.61575 41.5809 3.6417L47.5926 13.3929V13.4448C47.5926 13.7301 47.676 13.9894 47.8153 14.1968L37.6845 24L29.0567 15.5195L41.2191 3.51196ZM40.2729 3.30447L28.4721 14.949L22.5439 9.11374L39.8274 3.30447H40.2729V3.30447ZM27.4423 3.30447C27.7206 3.56376 28.0824 3.71935 28.4999 3.71935C28.9175 3.71935 29.2792 3.56376 29.5576 3.30447H37.3505L21.9317 8.49127L16.6436 3.30447H27.4423V3.30447ZM15.3634 3.84909L15.4747 3.6417C15.5686 3.61933 15.6614 3.59336 15.753 3.56385L21.0689 8.7767L15.3634 10.6958V3.84909ZM15.3634 11.5256L21.6811 9.39907L27.8876 15.5195L19.6216 23.6629L15.3634 19.5912V11.5256ZM15.3634 20.4988L19.1484 24.1556L15.3634 27.8642V20.4988V20.4988ZM15.3634 29.0053L19.7329 24.7003L28.333 33.0252L26.5517 34.7368H15.3634V29.0053V29.0053ZM16.087 44.6955C15.92 44.5399 15.7252 44.4362 15.4747 44.3584L15.3634 44.2028V35.5148H25.7446L16.2261 44.6955H16.087ZM29.5854 44.6955C29.3071 44.4622 28.9175 44.2806 28.4999 44.2806C28.0824 44.2806 27.6929 44.4622 27.4144 44.6955H17.3949L26.9134 35.5148H30.8934L40.4119 44.6955H29.5854ZM42.0541 43.5544L41.6088 44.2805C41.4696 44.3065 41.3584 44.3583 41.247 44.4102L31.979 35.5147H43.8633L42.0541 43.5544V43.5544ZM43.3899 41.4018L44.7259 35.5148H47.0081L43.3899 41.4018ZM47.0081 34.7368H44.8929L45.366 32.688L47.1473 34.4515C47.0917 34.5293 47.036 34.633 47.0081 34.7368V34.7368ZM53.8826 24.3371L48.1214 33.6994C47.9822 33.7512 47.843 33.8031 47.7039 33.8809L45.5608 31.7543L49.1512 15.8826L53.9104 23.5592C53.8826 23.6888 53.8269 23.8184 53.8269 23.974C53.8269 24.1037 53.8548 24.2075 53.8826 24.3371Z" fill="#27AE60"/>
</svg>
